<svg width="44" height="44" viewBox="0 0 44 44" fill="none" xmlns="http://www.w3.org/2000/svg">
<rect x="8" y="8" width="28" height="28" rx="14" fill="white"/>
<path opacity="0.4" d="M2.59853 30.0364C1.54318 27.4885 1 24.7578 1 22C1 19.2422 1.54318 16.5115 2.59853 13.9637C3.65388 11.4158 5.20073 9.10079 7.15075 7.15076C9.10078 5.20073 11.4158 3.65388 13.9636 2.59853C16.5115 1.54318 19.2422 1 22 1C24.7578 1 27.4885 1.54318 30.0363 2.59853C32.5842 3.65388 34.8992 5.20073 36.8492 7.15076C38.7993 9.10079 40.3461 11.4158 41.4015 13.9636C42.4568 16.5115 43 19.2422 43 22C43 24.7578 42.4568 27.4885 41.4015 30.0364C40.3461 32.5842 38.7993 34.8992 36.8492 36.8492C34.8992 38.7993 32.5842 40.3461 30.0364 41.4015C27.4885 42.4568 24.7578 43 22 43C19.2422 43 16.5115 42.4568 13.9636 41.4015C11.4158 40.3461 9.10079 38.7993 7.15076 36.8492C5.20073 34.8992 3.65388 32.5842 2.59853 30.0364Z" stroke="white" stroke-width="2" stroke-miterlimit="3.8637" stroke-dasharray="4 8"/>
<path opacity="0.4" d="M15.5423 26.1668C15.409 25.6335 15.334 25.0752 15.334 24.5002C15.334 20.8168 18.3173 17.8335 22.0007 17.8335C25.684 17.8335 28.6673 20.8168 28.6673 24.5002C28.6673 25.0752 28.5923 25.6335 28.459 26.1668" fill="#44D62C"/>
<path d="M14.5 27.4167V26.1667H29.5V27.4167C29.5 28.1083 28.9417 28.6667 28.25 28.6667H15.75C15.0583 28.6667 14.5 28.1083 14.5 27.4167ZM22 15.75C21.3083 15.75 20.75 16.3083 20.75 17C20.75 17.6917 21.3083 18.25 22 18.25C22.6917 18.25 23.25 17.6917 23.25 17C23.25 16.3083 22.6917 15.75 22 15.75ZM25.725 22.5333C26.0167 22.35 26.1083 21.9667 25.925 21.675C25.3 20.675 24.1917 19.9417 22.9417 19.725C22.6 19.6667 22.275 19.8917 22.2167 20.2333C22.1583 20.575 22.3833 20.9 22.725 20.9583C23.6083 21.1167 24.4333 21.6417 24.8583 22.3417C24.975 22.5333 25.1833 22.6333 25.3917 22.6333C25.5 22.6333 25.6167 22.6 25.7167 22.5417L25.725 22.5333Z" fill="#44D62C"/>
</svg>
