<svg width="44" height="44" viewBox="0 0 44 44" fill="none" xmlns="http://www.w3.org/2000/svg">
<rect x="8" y="8" width="28" height="28" rx="14" fill="white"/>
<path opacity="0.4" d="M2.59853 30.0364C1.54318 27.4885 1 24.7578 1 22C1 19.2422 1.54318 16.5115 2.59853 13.9637C3.65388 11.4158 5.20073 9.10079 7.15075 7.15076C9.10078 5.20073 11.4158 3.65388 13.9636 2.59853C16.5115 1.54318 19.2422 1 22 1C24.7578 1 27.4885 1.54318 30.0363 2.59853C32.5842 3.65388 34.8992 5.20073 36.8492 7.15076C38.7993 9.10079 40.3461 11.4158 41.4015 13.9636C42.4568 16.5115 43 19.2422 43 22C43 24.7578 42.4568 27.4885 41.4015 30.0364C40.3461 32.5842 38.7993 34.8992 36.8492 36.8492C34.8992 38.7993 32.5842 40.3461 30.0364 41.4015C27.4885 42.4568 24.7578 43 22 43C19.2422 43 16.5115 42.4568 13.9636 41.4015C11.4158 40.3461 9.10079 38.7993 7.15076 36.8492C5.20073 34.8992 3.65388 32.5842 2.59853 30.0364Z" stroke="white" stroke-width="2" stroke-miterlimit="3.8637" stroke-dasharray="4 8"/>
<path opacity="0.4" d="M21.6075 19.8165L27.4991 24.9165C28.1574 25.4915 27.7574 26.5749 26.8824 26.5749H24.2075C23.7325 26.5749 23.2741 26.7749 22.9575 27.1332L21.1325 29.1832C20.5575 29.8332 19.4824 29.4249 19.4824 28.5582V20.7832C19.4824 19.6915 20.7658 19.0999 21.5908 19.8165H21.6075Z" fill="#44D62C"/>
<path d="M22.5083 17.9666C22.275 17.9666 22.05 17.8333 21.9416 17.6083C21.8 17.2916 21.9333 16.925 22.2416 16.775L23.7499 16.075C24.0583 15.9333 24.4333 16.0666 24.5833 16.375C24.7249 16.6916 24.5916 17.0583 24.2833 17.2083L22.775 17.9083C22.6916 17.95 22.6 17.9666 22.5083 17.9666ZM20.7416 16.2083L20.8916 14.55C20.925 14.2083 20.6666 13.9 20.325 13.875C19.9916 13.8416 19.675 14.1 19.65 14.4416L19.5 16.1C19.4666 16.4416 19.725 16.75 20.0666 16.775C20.0833 16.775 20.1 16.775 20.125 16.775C20.4416 16.775 20.7166 16.5333 20.75 16.2083H20.7416ZM17.9916 17.7416C18.1916 17.4583 18.125 17.0666 17.8416 16.875L16.475 15.9166C16.1916 15.7166 15.8 15.7833 15.6083 16.0666C15.4083 16.35 15.475 16.7416 15.7583 16.9333L17.125 17.8916C17.2333 17.9666 17.3583 18.0083 17.4833 18.0083C17.6833 18.0083 17.875 17.9166 18 17.7416H17.9916ZM15.6 21.2416L17.1083 20.5416C17.425 20.4 17.5583 20.025 17.4083 19.7083C17.2583 19.3916 16.8916 19.2583 16.575 19.4083L15.0666 20.1083C14.75 20.25 14.6166 20.625 14.7666 20.9416C14.875 21.1666 15.1 21.3 15.3333 21.3C15.425 21.3 15.5083 21.2833 15.6 21.2416Z" fill="#44D62C"/>
</svg>
