<svg width="44" height="44" viewBox="0 0 44 44" fill="none" xmlns="http://www.w3.org/2000/svg">
<rect x="8" y="8" width="28" height="28" rx="14" fill="white"/>
<path opacity="0.4" d="M2.59853 30.0364C1.54318 27.4885 1 24.7578 1 22C1 19.2422 1.54318 16.5115 2.59853 13.9637C3.65388 11.4158 5.20073 9.10079 7.15075 7.15076C9.10078 5.20073 11.4158 3.65388 13.9636 2.59853C16.5115 1.54318 19.2422 1 22 1C24.7578 1 27.4885 1.54318 30.0363 2.59853C32.5842 3.65388 34.8992 5.20073 36.8492 7.15076C38.7993 9.10079 40.3461 11.4158 41.4015 13.9636C42.4568 16.5115 43 19.2422 43 22C43 24.7578 42.4568 27.4885 41.4015 30.0364C40.3461 32.5842 38.7993 34.8992 36.8492 36.8492C34.8992 38.7993 32.5842 40.3461 30.0364 41.4015C27.4885 42.4568 24.7578 43 22 43C19.2422 43 16.5115 42.4568 13.9636 41.4015C11.4158 40.3461 9.10079 38.7993 7.15076 36.8492C5.20073 34.8992 3.65388 32.5842 2.59853 30.0364Z" stroke="white" stroke-width="2" stroke-miterlimit="3.8637" stroke-dasharray="4 8"/>
<path opacity="0.4" d="M26.6875 14.5H17.3125C15.4375 14.5 14.5 15.4375 14.5 17.3125V26.6875C14.5 28.5625 15.4375 29.5 17.3125 29.5H26.6875C28.5625 29.5 29.5 28.5625 29.5 26.6875V17.3125C29.5 15.4375 28.5625 14.5 26.6875 14.5Z" fill="#44D62C"/>
<path d="M25.3327 20.125H21.166C20.821 20.125 20.541 19.845 20.541 19.5C20.541 19.155 20.821 18.875 21.166 18.875H25.3327C25.6777 18.875 25.9577 19.155 25.9577 19.5C25.9577 19.845 25.6777 20.125 25.3327 20.125ZM25.9577 22C25.9577 21.655 25.6777 21.375 25.3327 21.375H18.666C18.321 21.375 18.041 21.655 18.041 22C18.041 22.345 18.321 22.625 18.666 22.625H25.3327C25.6777 22.625 25.9577 22.345 25.9577 22ZM23.4577 24.5C23.4577 24.155 23.1777 23.875 22.8327 23.875H18.666C18.321 23.875 18.041 24.155 18.041 24.5C18.041 24.845 18.321 25.125 18.666 25.125H22.8327C23.1777 25.125 23.4577 24.845 23.4577 24.5Z" fill="#44D62C"/>
</svg>
