<svg width="44" height="44" viewBox="0 0 44 44" fill="none" xmlns="http://www.w3.org/2000/svg">
<rect x="8" y="8" width="28" height="28" rx="14" fill="white"/>
<path opacity="0.4" d="M2.59853 30.0364C1.54318 27.4885 1 24.7578 1 22C1 19.2422 1.54318 16.5115 2.59853 13.9637C3.65388 11.4158 5.20073 9.10079 7.15075 7.15076C9.10078 5.20073 11.4158 3.65388 13.9636 2.59853C16.5115 1.54318 19.2422 1 22 1C24.7578 1 27.4885 1.54318 30.0363 2.59853C32.5842 3.65388 34.8992 5.20073 36.8492 7.15076C38.7993 9.10079 40.3461 11.4158 41.4015 13.9636C42.4568 16.5115 43 19.2422 43 22C43 24.7578 42.4568 27.4885 41.4015 30.0364C40.3461 32.5842 38.7993 34.8992 36.8492 36.8492C34.8992 38.7993 32.5842 40.3461 30.0364 41.4015C27.4885 42.4568 24.7578 43 22 43C19.2422 43 16.5115 42.4568 13.9636 41.4015C11.4158 40.3461 9.10079 38.7993 7.15076 36.8492C5.20073 34.8992 3.65388 32.5842 2.59853 30.0364Z" stroke="white" stroke-width="2" stroke-miterlimit="3.8637" stroke-dasharray="4 8"/>
<path opacity="0.4" d="M28.2146 20.9976C28.1479 20.8467 27.9988 20.7501 27.8338 20.7501H24.0838V14.5001C24.0838 14.3276 23.978 14.1726 23.8163 14.1109C23.6538 14.0484 23.4729 14.0934 23.3571 14.2209L15.8571 22.5542C15.7471 22.6767 15.7188 22.8517 15.7863 23.0026C15.853 23.1534 16.0021 23.2501 16.1671 23.2501H19.9171V29.5001C19.9171 29.6726 20.0229 29.8276 20.1846 29.8892C20.2338 29.9076 20.2838 29.9167 20.3338 29.9167C20.4496 29.9167 20.563 29.8684 20.6438 29.7784L28.1438 21.4451C28.2538 21.3234 28.2813 21.1476 28.2146 20.9976Z" fill="#44D62C"/>
</svg>
