<svg width="44" height="44" viewBox="0 0 44 44" fill="none" xmlns="http://www.w3.org/2000/svg">
<rect x="8" y="8" width="28" height="28" rx="14" fill="white"/>
<path opacity="0.4" d="M2.59853 30.0364C1.54318 27.4885 1 24.7578 1 22C1 19.2422 1.54318 16.5115 2.59853 13.9637C3.65388 11.4158 5.20073 9.10079 7.15075 7.15076C9.10078 5.20073 11.4158 3.65388 13.9636 2.59853C16.5115 1.54318 19.2422 1 22 1C24.7578 1 27.4885 1.54318 30.0363 2.59853C32.5842 3.65388 34.8992 5.20073 36.8492 7.15076C38.7993 9.10079 40.3461 11.4158 41.4015 13.9636C42.4568 16.5115 43 19.2422 43 22C43 24.7578 42.4568 27.4885 41.4015 30.0364C40.3461 32.5842 38.7993 34.8992 36.8492 36.8492C34.8992 38.7993 32.5842 40.3461 30.0364 41.4015C27.4885 42.4568 24.7578 43 22 43C19.2422 43 16.5115 42.4568 13.9636 41.4015C11.4158 40.3461 9.10079 38.7993 7.15076 36.8492C5.20073 34.8992 3.65388 32.5842 2.59853 30.0364Z" stroke="white" stroke-width="2" stroke-miterlimit="3.8637" stroke-dasharray="4 8"/>
<path opacity="0.4" d="M26.7217 13.6665H17.2775C15.4258 13.6665 14.5 14.5923 14.5 16.444V24.7773C14.5 26.629 15.4258 27.5549 17.2775 27.5549H18.5275C18.965 27.5549 19.3767 27.7607 19.6383 28.1107L20.8883 29.7773C21.4442 30.5182 22.555 30.5182 23.1108 29.7773L24.3608 28.1107C24.6233 27.7607 25.035 27.5549 25.4717 27.5549H26.7217C28.5733 27.5549 29.4992 26.629 29.4992 24.7773V16.444C29.4992 14.5923 28.5733 13.6665 26.7217 13.6665Z" fill="#44D62C"/>
<path d="M18.6994 19.8916H19.2493C19.3876 19.8916 19.4993 20.0033 19.4993 20.1417V24.0417C19.4993 24.18 19.3876 24.2917 19.2493 24.2917H18.6994C18.336 24.2917 18.041 23.9967 18.041 23.6334V20.55C18.041 20.1883 18.3369 19.8916 18.6994 19.8916ZM24.5985 19.0167H22.8735V17.5917C22.8735 17.15 22.6568 16.7333 22.2902 16.4917C22.1735 16.4083 22.0402 16.375 21.9069 16.375C21.6235 16.375 21.3568 16.5416 21.2485 16.825L20.3444 19.5783C20.336 19.6033 20.3319 19.63 20.3319 19.6567V24.0417C20.3319 24.18 20.4435 24.2917 20.5818 24.2917H23.7151C24.5985 24.2917 24.7901 23.925 24.9651 23.3917L25.8485 20.75C26.1319 19.9 25.9152 19.0167 24.5985 19.0167Z" fill="#44D62C"/>
</svg>
