<svg width="44" height="44" viewBox="0 0 44 44" fill="none" xmlns="http://www.w3.org/2000/svg">
<rect x="8" y="8" width="28" height="28" rx="14" fill="white"/>
<path opacity="0.4" d="M2.59853 30.0364C1.54318 27.4885 1 24.7578 1 22C1 19.2422 1.54318 16.5115 2.59853 13.9637C3.65388 11.4158 5.20073 9.10079 7.15075 7.15076C9.10078 5.20073 11.4158 3.65388 13.9636 2.59853C16.5115 1.54318 19.2422 1 22 1C24.7578 1 27.4885 1.54318 30.0363 2.59853C32.5842 3.65388 34.8992 5.20073 36.8492 7.15076C38.7993 9.10079 40.3461 11.4158 41.4015 13.9636C42.4568 16.5115 43 19.2422 43 22C43 24.7578 42.4568 27.4885 41.4015 30.0364C40.3461 32.5842 38.7993 34.8992 36.8492 36.8492C34.8992 38.7993 32.5842 40.3461 30.0364 41.4015C27.4885 42.4568 24.7578 43 22 43C19.2422 43 16.5115 42.4568 13.9636 41.4015C11.4158 40.3461 9.10079 38.7993 7.15076 36.8492C5.20073 34.8992 3.65388 32.5842 2.59853 30.0364Z" stroke="white" stroke-width="2" stroke-miterlimit="3.8637" stroke-dasharray="4 8"/>
<path opacity="0.4" d="M27 29.2918H17C14.985 29.2918 13.875 28.1818 13.875 26.1668V17.8335C13.875 15.8185 14.985 14.7085 17 14.7085H27C29.015 14.7085 30.125 15.8185 30.125 17.8335V26.1668C30.125 28.1818 29.015 29.2918 27 29.2918Z" fill="#44D62C"/>
<path d="M28.8017 23.8017L25.0916 20.0915C24.7666 19.7657 24.2342 19.7657 23.9084 20.0915L19.7916 24.2082C19.6308 24.3682 19.3684 24.3682 19.2084 24.2082L18.425 23.4249C18.1 23.099 17.5675 23.099 17.2417 23.4249L15.1983 25.4683C15.1517 25.515 15.125 25.5791 15.125 25.6449V26.1666C15.125 27.4832 15.6833 28.0416 17 28.0416H27C28.3167 28.0416 28.875 27.4832 28.875 26.1666V23.9783C28.875 23.9124 28.8483 23.8483 28.8017 23.8017Z" fill="#44D62C"/>
<path d="M18.6683 20.5418C18.095 20.5418 17.625 20.0752 17.625 19.5002C17.625 18.9252 18.0867 18.4585 18.6609 18.4585H18.6692C19.2434 18.4585 19.7091 18.9252 19.7091 19.5002C19.7091 20.0752 19.2433 20.5418 18.6683 20.5418Z" fill="#44D62C"/>
</svg>
