<svg width="44" height="44" viewBox="0 0 44 44" fill="none" xmlns="http://www.w3.org/2000/svg">
<rect x="8" y="8" width="28" height="28" rx="14" fill="white"/>
<path opacity="0.4" d="M2.59853 30.0364C1.54318 27.4885 1 24.7578 1 22C1 19.2422 1.54318 16.5115 2.59853 13.9637C3.65388 11.4158 5.20073 9.10079 7.15075 7.15076C9.10078 5.20073 11.4158 3.65388 13.9636 2.59853C16.5115 1.54318 19.2422 1 22 1C24.7578 1 27.4885 1.54318 30.0363 2.59853C32.5842 3.65388 34.8992 5.20073 36.8492 7.15076C38.7993 9.10079 40.3461 11.4158 41.4015 13.9636C42.4568 16.5115 43 19.2422 43 22C43 24.7578 42.4568 27.4885 41.4015 30.0364C40.3461 32.5842 38.7993 34.8992 36.8492 36.8492C34.8992 38.7993 32.5842 40.3461 30.0364 41.4015C27.4885 42.4568 24.7578 43 22 43C19.2422 43 16.5115 42.4568 13.9636 41.4015C11.4158 40.3461 9.10079 38.7993 7.15076 36.8492C5.20073 34.8992 3.65388 32.5842 2.59853 30.0364Z" stroke="white" stroke-width="2" stroke-miterlimit="3.8637" stroke-dasharray="4 8"/>
<path d="M28.666 25.5415H26.791V23.6665C26.791 23.3215 26.511 23.0415 26.166 23.0415C25.821 23.0415 25.541 23.3215 25.541 23.6665V25.5415H23.666C23.321 25.5415 23.041 25.8215 23.041 26.1665C23.041 26.5115 23.321 26.7915 23.666 26.7915H25.541V28.6665C25.541 29.0115 25.821 29.2915 26.166 29.2915C26.511 29.2915 26.791 29.0115 26.791 28.6665V26.7915H28.666C29.011 26.7915 29.291 26.5115 29.291 26.1665C29.291 25.8215 29.011 25.5415 28.666 25.5415Z" fill="#44D62C"/>
<path opacity="0.4" d="M27.416 15.3335H24.916C24.0827 15.3335 23.666 15.7502 23.666 16.5835V19.0835C23.666 19.9168 24.0827 20.3335 24.916 20.3335H27.416C28.2493 20.3335 28.666 19.9168 28.666 19.0835V16.5835C28.666 15.7502 28.2493 15.3335 27.416 15.3335Z" fill="#44D62C"/>
<path opacity="0.4" d="M19.084 15.3335H16.584C15.7507 15.3335 15.334 15.7502 15.334 16.5835V19.0835C15.334 19.9168 15.7507 20.3335 16.584 20.3335H19.084C19.9173 20.3335 20.334 19.9168 20.334 19.0835V16.5835C20.334 15.7502 19.9173 15.3335 19.084 15.3335Z" fill="#44D62C"/>
<path opacity="0.4" d="M19.084 23.6665H16.584C15.7507 23.6665 15.334 24.0832 15.334 24.9165V27.4165C15.334 28.2498 15.7507 28.6665 16.584 28.6665H19.084C19.9173 28.6665 20.334 28.2498 20.334 27.4165V24.9165C20.334 24.0832 19.9173 23.6665 19.084 23.6665Z" fill="#44D62C"/>
</svg>
