<svg width="1204" height="1204" viewBox="0 0 1204 1204" fill="none" xmlns="http://www.w3.org/2000/svg">
<path d="M47.6722 831.61C17.5194 758.815 2 680.793 2 602C2 523.207 17.5194 445.185 47.6722 372.39C77.8251 299.595 122.021 233.451 177.736 177.736C233.451 122.021 299.594 77.8251 372.39 47.6723C445.185 17.5195 523.207 2.00001 602 2C680.793 1.99999 758.815 17.5194 831.61 47.6723C904.405 77.8251 970.549 122.021 1026.26 177.736C1081.98 233.451 1126.17 299.595 1156.33 372.39C1186.48 445.185 1202 523.207 1202 602C1202 680.793 1186.48 758.815 1156.33 831.61C1126.17 904.405 1081.98 970.549 1026.26 1026.26C970.549 1081.98 904.405 1126.17 831.61 1156.33C758.815 1186.48 680.793 1202 602 1202C523.207 1202 445.185 1186.48 372.39 1156.33C299.595 1126.17 233.451 1081.98 177.736 1026.26C122.021 970.549 77.8251 904.405 47.6722 831.61Z" stroke="#F2F3F4" stroke-width="4" stroke-miterlimit="3.8637" stroke-dasharray="4 8"/>
<path d="M140.06 793.342C114.933 732.679 102 667.661 102 602C102 536.339 114.933 471.321 140.06 410.658C165.188 349.996 202.017 294.876 248.447 248.447C294.876 202.017 349.995 165.188 410.658 140.06C471.321 114.933 536.339 102 602 102C667.661 102 732.679 114.933 793.342 140.06C854.004 165.188 909.124 202.017 955.553 248.447C1001.98 294.876 1038.81 349.995 1063.94 410.658C1089.07 471.321 1102 536.339 1102 602C1102 667.661 1089.07 732.679 1063.94 793.342C1038.81 854.004 1001.98 909.124 955.553 955.553C909.124 1001.98 854.005 1038.81 793.342 1063.94C732.679 1089.07 667.661 1102 602 1102C536.339 1102 471.321 1089.07 410.658 1063.94C349.996 1038.81 294.876 1001.98 248.447 955.553C202.017 909.124 165.188 854.004 140.06 793.342Z" stroke="#F2F3F4" stroke-width="4" stroke-miterlimit="3.8637" stroke-dasharray="4 8"/>
<path d="M232.448 755.073C212.346 706.543 202 654.529 202 602C202 549.471 212.346 497.457 232.448 448.927C252.55 400.396 282.014 356.301 319.157 319.157C356.301 282.014 400.396 252.55 448.927 232.448C497.457 212.346 549.471 202 602 202C654.529 202 706.543 212.346 755.073 232.448C803.604 252.55 847.699 282.014 884.843 319.157C921.986 356.301 951.45 400.396 971.552 448.927C991.654 497.457 1002 549.471 1002 602C1002 654.529 991.654 706.543 971.552 755.073C951.45 803.604 921.986 847.699 884.843 884.843C847.699 921.986 803.604 951.45 755.073 971.552C706.543 991.654 654.529 1002 602 1002C549.471 1002 497.457 991.654 448.927 971.552C400.396 951.45 356.301 921.986 319.157 884.843C282.014 847.699 252.55 803.604 232.448 755.073Z" stroke="#F2F3F4" stroke-width="4" stroke-miterlimit="3.8637" stroke-dasharray="4 8"/>
<path d="M324.836 716.805C309.76 680.407 302 641.397 302 602C302 562.603 309.76 523.593 324.836 487.195C339.913 450.797 362.01 417.726 389.868 389.868C417.725 362.01 450.797 339.913 487.195 324.836C523.593 309.76 562.603 302 602 302C641.397 302 680.407 309.76 716.805 324.836C753.203 339.913 786.274 362.01 814.132 389.868C841.99 417.726 864.087 450.797 879.164 487.195C894.24 523.593 902 562.603 902 602C902 641.397 894.24 680.407 879.164 716.805C864.087 753.203 841.99 786.274 814.132 814.132C786.274 841.99 753.203 864.087 716.805 879.164C680.407 894.24 641.397 902 602 902C562.603 902 523.593 894.24 487.195 879.164C450.797 864.087 417.726 841.99 389.868 814.132C362.01 786.274 339.913 753.203 324.836 716.805Z" stroke="#F2F3F4" stroke-width="4" stroke-miterlimit="3.8637" stroke-dasharray="4 8"/>
</svg>
